<!-- License: PD. Made by Unblast: https://dribbble.com/unblast -->
<svg width="512px" height="512px" viewBox="0 -3.99 48.892 48.892" xmlns="http://www.w3.org/2000/svg">
  <g id="work_suitcase_toolbox" data-name="work suitcase toolbox" transform="translate(-226.054 -134.263)">
    <path id="Path_42" data-name="Path 42" d="M228.55,155.5v19.168h43.9V155.5Z" fill="#354077" fill-rule="evenodd"/>
    <path id="Path_43" data-name="Path 43" d="M274.446,142.745H226.554v11.973l23.946,3.991,23.946-3.991V142.745Z" fill="#e23a44" fill-rule="evenodd"/>
    <path id="Path_44" data-name="Path 44" d="M238.527,156.55h-3.991v6.15h3.991v-6.15Z" fill="#f2f7fd" fill-rule="evenodd"/>
    <path id="Path_45" data-name="Path 45" d="M266.464,156.55h-3.991v6.15h3.991v-6.15Z" fill="#f2f7fd" fill-rule="evenodd"/>
    <path id="Path_46" data-name="Path 46" d="M258.482,134.763H242.518v3.991h15.964v-3.991Z" fill="#354077" fill-rule="evenodd"/>
    <path id="Path_47" data-name="Path 47" d="M256.486,138.754H244.514v3.991h11.972v-3.991Zm2-3.991H242.518v3.991h15.964v-3.991Zm3.991,22.944V162.7h3.991v-5.714m-31.928-.436v6.15h3.991v-4.943m15.964,16.915H272.45V155.5M250,174.672h1M228.55,155.5v19.168h17.959m27.937-31.927H226.554v11.973l23.946,3.991,23.946-3.991V142.745Z" fill="none" stroke="#0f0e0b" stroke-linecap="round" stroke-linejoin="round" stroke-width="1"/>
  </g>
</svg>
