<?xml version="1.0" encoding="iso-8859-1"?>
<!-- Generator: Adobe Illustrator 19.0.0, SVG Export Plug-In . SVG Version: 6.00 Build 0)  -->
<!-- License: CC0. Made by SVG Repo: https://www.svgrepo.com/svg/209353/books-study -->
<svg version="1.1" id="Layer_1" xmlns="http://www.w3.org/2000/svg" xmlns:xlink="http://www.w3.org/1999/xlink" x="0px" y="0px"
	 viewBox="0 0 512.256 512.256" style="enable-background:new 0 0 512.256 512.256;" xml:space="preserve">
<polygon points="226.976,512.144 0,361.824 0,177.296 32,177.296 32,344.64 227.616,474.176 492.288,311.488 509.04,338.736 "/>
<polygon points="226.608,420.816 7.28,278.256 24.72,251.408 227.04,382.944 478.304,227.568 495.152,254.784 "/>
<path d="M472.048,340.048c-18.896-43.44-7.52-79.872,0.528-97.184c-26.688-40.592,0.448-101.056,1.712-103.824l29.104,13.312
	c-6.72,14.8-19.856,57.616-0.304,77.648l9.168,9.392l-7.408,10.832c-0.848,1.296-22.144,34.208-3.488,77.088L472.048,340.048z"/>
<polygon style="fill:#E04F5F;" points="512.112,143.504 294.768,0.112 0.112,176.176 225.552,322.144 "/>
</svg>
